<svg width="1728" height="608" viewBox="0 0 1728 608" fill="none" xmlns="http://www.w3.org/2000/svg">
<g filter="url(#filter0_d_389_413)">
<g clip-path="url(#clip0_389_413)">
<rect x="4" width="1720" height="600" fill="url(#paint0_linear_389_413)"/>
<rect x="-72.3319" y="81.7993" width="1838.81" height="523.505" transform="rotate(-5.37808 -72.3319 81.7993)" fill="url(#paint1_linear_389_413)"/>
<g filter="url(#filter1_d_389_413)">
<g clip-path="url(#clip1_389_413)">
<rect x="824" y="-91" width="800" height="773.691" rx="386.845" fill="url(#paint2_linear_389_413)"/>
<g filter="url(#filter2_d_389_413)">
<path fill-rule="evenodd" clip-rule="evenodd" d="M936.905 63.6555L965.902 37.6359C978.681 26.1692 971.23 4.97647 954.087 4.02934C947.247 3.65144 940.72 6.93071 936.941 12.6441L932.831 18.8557C930.631 22.1826 929.841 26.2475 930.638 30.1563L931.142 32.6337C932.176 37.7071 929.741 42.8546 925.164 45.2742L924.38 45.6884C917.67 49.2349 916.461 58.3392 922.012 63.5141C926.191 67.4098 932.653 67.4711 936.905 63.6555ZM920.172 28.0854L917.336 21.5591C915.279 16.8279 909.382 15.2005 905.19 18.2076C903.056 19.7378 901.798 22.2072 901.812 24.8324L901.852 31.9485C901.88 37.0276 905.877 41.1971 910.95 41.4405C918.023 41.7797 922.995 34.5788 920.172 28.0854ZM877.45 45.2465L881.619 39.4794C884.642 35.2985 883.036 29.3951 878.312 27.3213C875.908 26.266 873.142 26.4415 870.891 27.7922L864.789 31.4534C860.434 34.0666 858.883 39.6303 861.26 44.1192C864.573 50.3768 873.302 50.9846 877.45 45.2465ZM1081.44 343.16V341.254C1081.44 326.211 1088.54 312.049 1100.59 303.05L1105.5 299.389C1119.63 288.838 1137.69 285.054 1154.87 289.045L1159.21 290.052L1199.75 299.43C1201.07 299.735 1202.43 299.789 1203.77 299.589L1211.54 298.427C1218.14 297.442 1220.26 288.985 1214.92 285C1213.02 283.585 1211.9 281.356 1211.9 278.988V278.469C1211.9 274.478 1214.67 271.019 1218.56 270.144L1228.52 267.907C1234.62 266.536 1238.05 260.029 1235.72 254.221C1234.18 250.364 1230.44 247.835 1226.29 247.835H1221.85C1215.72 247.835 1210.08 251.187 1207.15 256.572L1204.53 261.392C1204.15 262.087 1203.73 262.754 1203.25 263.386C1196.32 272.633 1182.22 271.906 1176.27 261.994L1175.26 260.299C1170.92 253.063 1162.05 249.926 1154.12 252.82L1130.82 261.327C1128.81 262.062 1126.91 263.086 1125.19 264.367L1111.26 274.733C1105.96 278.676 1098.36 276.266 1096.3 269.991C1094.86 265.601 1096.72 260.805 1100.75 258.544L1105.02 256.146C1109.28 253.757 1111.91 249.258 1111.91 244.378C1111.91 240.157 1113.89 236.178 1117.25 233.627L1137.04 218.614C1138.68 217.374 1140 215.765 1140.89 213.92C1143.46 208.638 1149.24 205.72 1155.02 206.785L1164.54 208.542C1172.51 210.013 1180.52 206.145 1184.33 198.984L1186.27 195.321C1187.82 192.414 1187.89 188.946 1186.47 185.978C1182.86 178.44 1172.27 178.05 1168.12 185.302L1164.63 191.389C1161.9 196.159 1155.38 197.028 1151.49 193.142L1151.02 192.671C1149.76 191.408 1148.05 190.698 1146.26 190.698C1142.54 190.698 1139.53 187.684 1139.53 183.965V173.653C1139.53 170.082 1140.65 166.602 1142.73 163.703L1159.57 140.279C1168.59 127.742 1184.23 121.816 1199.29 125.234L1214.95 128.789C1217.61 129.392 1219.79 131.275 1220.78 133.815L1220.89 134.09C1222.43 138.048 1220.56 142.515 1216.66 144.2L1214.56 145.11C1212.94 145.808 1211.9 147.397 1211.9 149.154C1211.9 151.587 1213.87 153.56 1216.31 153.56H1221.47C1226.05 153.56 1229.99 150.311 1230.86 145.812L1231.58 142.065C1232.56 137.012 1236.2 132.884 1241.09 131.278L1266.89 122.803C1272.91 120.825 1277.38 115.726 1278.56 109.495C1279.9 102.392 1285.49 96.8555 1292.6 95.5881L1295.31 95.106C1300.85 94.12 1305.77 90.9925 1309.02 86.401L1335.01 49.6472C1340.83 41.4272 1350.96 37.4322 1360.81 39.472L1362.94 39.9124C1368.82 41.128 1373.87 44.8463 1376.78 50.0942C1381.65 58.8826 1392.15 62.8719 1401.63 59.5328L1409.26 56.8432C1415.13 54.7743 1421.62 55.4709 1426.92 58.7383C1433.47 62.7793 1441.73 62.8296 1448.33 58.8686L1457.77 53.2059C1465.26 48.7151 1474.04 46.8867 1482.7 48.0178L1510.43 51.642C1520.08 52.9036 1529.9 51.4508 1538.77 47.4464C1546.94 43.7619 1555.91 42.2323 1564.84 43.0036L1595.9 45.6885C1600.06 46.0474 1603.68 48.6568 1605.33 52.483C1606.83 55.9422 1606.51 59.9187 1604.48 63.093L1602.14 66.7389C1599.23 71.2973 1598.34 76.864 1599.69 82.1043L1600.91 86.8385C1602.05 91.2682 1602.19 95.8975 1601.32 100.388L1598.9 112.798C1598.07 117.022 1595.11 120.517 1591.08 122.028C1585.9 123.97 1582.64 129.111 1583.08 134.625L1586.44 176.393C1586.63 178.735 1584.99 180.827 1582.67 181.198C1580.47 181.55 1578.34 180.24 1577.67 178.118L1570.52 155.622C1566.62 143.352 1553.93 136.151 1541.39 139.093C1535.65 140.44 1530.59 143.8 1527.11 148.564L1524.29 152.428C1517.1 162.293 1515.15 175.041 1519.07 186.606L1527.34 211.022C1530.52 220.417 1528.35 230.8 1521.66 238.131L1516.87 243.394C1514.31 246.2 1513.17 250.019 1513.77 253.768L1514.26 256.849C1515.4 263.989 1509.04 270.061 1501.96 268.586C1494.58 267.049 1488.1 273.68 1489.8 281.022L1494.72 302.266C1496.85 311.465 1493.45 321.066 1486.01 326.875L1477.21 333.738C1472.24 337.619 1469.33 343.575 1469.33 349.883V361.174C1469.33 366.247 1465.22 370.36 1460.14 370.36H1453.68C1450.99 370.36 1449.01 372.889 1449.66 375.5C1450.76 379.894 1445.02 382.604 1442.32 378.96L1419.05 347.453C1415.78 343.018 1409.88 341.415 1404.81 343.578L1397.06 346.887C1392.27 348.929 1388.34 352.562 1385.92 357.171L1375.37 377.32C1373.9 380.13 1370 380.447 1368.09 377.91L1343.51 345.2C1335.38 334.37 1323.76 326.667 1310.62 323.381L1296.01 318.603C1290.64 316.847 1286.39 323.306 1290.13 327.543C1290.66 328.147 1291.32 328.628 1292.06 328.952L1292.54 329.163C1297.86 331.497 1298.95 338.563 1294.58 342.39L1287.72 348.403C1283.52 352.083 1277.52 352.857 1272.52 350.36L1266.61 347.404C1256.91 342.555 1246.22 351.906 1249.73 362.164C1251.4 367.066 1256.01 370.36 1261.19 370.36H1261.52C1270.6 370.36 1276.69 379.681 1273.05 387.995L1258.27 421.695C1257.41 423.654 1256.72 425.684 1256.22 427.763L1250.9 449.65C1247.79 462.452 1241.97 474.436 1233.82 484.789L1210.66 514.214C1206.43 519.586 1199.97 522.722 1193.14 522.722C1187.07 522.722 1181.27 520.255 1177.07 515.887L1171.1 509.683C1163.47 501.756 1159.21 491.183 1159.21 480.182V447.811L1155.85 420.514C1154.74 411.523 1150.34 403.262 1143.49 397.329C1138.01 392.577 1131.24 389.562 1124.04 388.667L1121.35 388.333C1098.55 385.5 1081.44 366.13 1081.44 343.16ZM903.822 78.9335L898.96 85.6686C894.119 92.3758 883.917 91.6659 880.051 84.3529C877.282 79.1153 879.09 72.6268 884.168 69.5755L891.289 65.2973C893.919 63.7169 897.153 63.5115 899.962 64.7466C905.471 67.1687 907.345 74.0538 903.822 78.9335ZM916.69 89.6689L911.786 93.1201C909.691 94.5944 908.444 96.9962 908.444 99.5581C908.444 102.338 909.91 104.911 912.301 106.329L924.406 113.508C931.434 117.675 935.743 125.241 935.743 133.411V134.754C935.743 138.328 936.773 141.826 938.711 144.829L941.497 149.148C945.37 155.151 953.302 157.007 959.436 153.346C964.564 150.286 967.014 144.174 965.419 138.418L957.263 108.985C954.895 100.44 948.785 93.4277 940.645 89.9126L935.57 87.7214C929.367 85.0426 922.217 85.7801 916.69 89.6689ZM1027.76 18.0766L979.819 46.1962C975.718 48.602 973.198 53.0011 973.198 57.7563C973.198 61.184 974.511 64.4814 976.868 66.9705L985.238 75.8106C995.363 86.5045 999.462 101.558 996.156 115.908L989.128 146.417C988.089 150.923 989.191 155.657 992.112 159.242C997.289 165.595 1006.61 166.609 1013.03 161.519L1044.95 136.216C1056.35 127.181 1063.8 114.085 1065.75 99.6734L1066.97 90.6909C1067.93 83.5433 1069.89 76.5642 1072.77 69.9528L1077.92 58.1501C1080.22 52.8699 1081.04 47.062 1080.29 41.3505C1078.51 27.802 1068.25 16.9185 1054.83 14.3463L1052.27 13.8555C1043.86 12.2433 1035.15 13.7435 1027.76 18.0766ZM667.367 145.782C663.085 122.814 666.667 75.9401 710.574 54.389C711.194 54.0843 711.818 53.7745 712.445 53.4632L712.452 53.4599L712.453 53.4595C719.12 50.1485 726.118 46.6727 733.447 47.3186C742.654 48.1302 755.513 54.2918 769.981 72.6796C770.583 73.4441 771.153 74.1831 771.705 74.8975C775.663 80.0235 778.64 83.8787 785.003 86.7481C797.103 92.2042 805.19 81.3256 813.315 70.3963C821.417 59.4975 829.557 48.5483 841.75 53.697C845.161 55.1369 849.372 57.9951 854.532 62.6461C859.935 67.5163 863.827 73.8518 866.574 80.5874L872.394 94.8602C874.542 100.129 878.699 104.325 883.947 106.523C897.856 112.348 901.544 130.344 891.048 141.171L877.775 154.861C869.358 163.543 869.751 177.456 878.646 185.648L883.73 190.33C891.328 197.329 903.467 195.417 908.545 186.42C914.286 176.25 928.627 175.438 935.48 184.894L946.542 200.158C955.144 212.026 953.188 228.511 942.048 238.037L877.031 293.634C873.801 296.397 871.941 300.435 871.941 304.686C871.941 314.993 861.513 322.028 851.955 318.169L845.254 315.464C833.576 310.749 820.836 319.345 820.836 331.938C820.836 338.068 823.995 343.764 829.194 347.01L859.355 365.839C869.797 372.357 882.504 374.168 894.35 370.827C906.16 367.496 918.827 369.285 929.252 375.757L977.544 405.737C999.144 419.145 1005.75 447.546 992.277 469.108L943.635 546.975C939.872 552.998 936.957 559.509 934.972 566.327L931.05 579.792C929.349 585.631 929.409 591.843 931.224 597.649L936.591 614.823C937.409 617.441 936.438 620.287 934.191 621.86C931.121 624.009 926.866 623.018 925.061 619.735L904.191 581.769C900.526 575.102 898.604 567.616 898.604 560.008V493.745C898.604 480.031 892.932 466.929 882.933 457.543L876.902 451.883C867.917 443.45 864.02 430.918 866.638 418.877C869.812 404.277 863.382 389.269 850.623 381.495L808.617 355.9C805.378 353.927 802.632 351.241 800.587 348.047L770.557 301.141C768.712 298.259 764.283 299.182 763.742 302.561C763.135 306.353 757.881 306.857 756.565 303.249L744.25 269.487C743.474 267.362 743.264 265.072 743.64 262.842L749.458 228.288C752.116 212.5 749.849 196.276 742.966 181.82L728.182 150.776C724.283 142.587 716.023 137.372 706.954 137.372H706.166C701.681 137.372 697.312 138.8 693.694 141.451L680.713 150.961C676.263 154.22 669.935 152.442 667.835 147.341C667.626 146.833 667.468 146.322 667.367 145.782ZM1479.47 397.521L1477.31 400.055C1473.01 405.126 1473.4 412.674 1478.21 417.269L1480.3 419.261C1482.53 421.398 1485.77 422.123 1488.7 421.145C1492.11 420.009 1494.41 416.82 1494.41 413.228V403.008C1494.41 399.906 1492.71 397.051 1489.99 395.566C1486.46 393.641 1482.07 394.458 1479.47 397.521ZM1477.27 502.332V509.469C1477.27 523.1 1488.32 534.15 1501.95 534.15C1504.73 534.15 1507.49 533.679 1510.12 532.758L1514.12 531.355C1520.64 529.065 1527.78 529.244 1534.18 531.857C1537.88 533.368 1541.22 535.647 1543.98 538.542L1555.33 550.456C1557.64 552.882 1560.49 554.722 1563.66 555.825C1573.06 559.103 1583.48 555.349 1588.63 546.825L1593.04 539.537C1595.19 535.981 1596.62 532.034 1597.24 527.925L1599.92 510.228C1600.66 505.365 1599.76 500.394 1597.36 496.101L1579.04 463.329C1576.55 458.879 1569.95 459.539 1568.4 464.393C1567.62 466.806 1565.38 468.443 1562.84 468.443H1561.28C1558.07 468.443 1555.18 466.522 1553.93 463.568L1552.84 460.994C1549.97 454.189 1541.76 451.482 1535.4 455.247L1516.93 466.192C1514.41 467.685 1511.69 468.813 1508.86 469.541L1501.17 471.513C1487.1 475.124 1477.27 487.806 1477.27 502.332ZM1436 408.048L1445.87 423.598C1447.04 425.432 1449.06 426.544 1451.23 426.544C1454.74 426.544 1457.59 423.701 1457.59 420.193V419.625C1457.59 417.947 1456.97 416.325 1455.87 415.063L1444.27 401.847C1442.76 400.117 1440.28 399.594 1438.19 400.563C1435.35 401.883 1434.32 405.403 1436 408.048ZM1259.03 476.574L1269.09 461.143C1270.8 458.517 1274.43 457.998 1276.81 460.038C1278.56 461.537 1279.11 464.008 1278.16 466.106L1270.94 482.133C1270.25 483.664 1269.03 484.891 1267.5 485.587L1266.98 485.822C1263.79 487.275 1260.02 485.866 1258.57 482.673C1257.67 480.696 1257.84 478.395 1259.03 476.574ZM1565.3 434.308L1566.58 435.489C1568.55 437.289 1571.11 438.288 1573.78 438.288H1579.88C1582.54 438.288 1585.17 438.878 1587.57 440.015L1597.26 444.593C1599.63 445.717 1602.47 444.956 1603.97 442.794C1605.68 440.32 1605.03 436.922 1602.52 435.258L1577.53 418.68C1575.9 417.598 1573.99 417.021 1572.03 417.021C1562.95 417.021 1558.61 428.172 1565.3 434.308ZM1638.51 590.806L1623.87 603.186C1622.2 604.601 1621.66 606.945 1622.53 608.954C1623.51 611.205 1625.99 612.403 1628.36 611.77L1632.89 610.562C1636.39 609.63 1639.15 606.949 1640.18 603.482L1643.08 593.795C1643.89 591.081 1640.67 588.976 1638.51 590.806ZM1650.64 574.666L1656.21 556.327C1657.03 553.616 1660.88 553.638 1661.67 556.358L1664.5 566.065C1665.51 569.539 1664.64 573.289 1662.21 575.969L1659.06 579.442C1657.42 581.261 1654.68 581.601 1652.64 580.241C1650.82 579.027 1650 576.762 1650.64 574.666Z" fill="#A7CF75"/>
</g>
<g opacity="0.6" filter="url(#filter3_f_389_413)">
<path d="M1550.47 -58.3668L1546.49 -53.1381C1536.87 -40.5219 1520.38 -35.2926 1505.25 -40.0647C1501.59 -41.2197 1497.77 -41.8075 1493.93 -41.8075H1461.06C1450.91 -41.8075 1441.37 -36.9481 1435.41 -28.7363C1425.1 -14.545 1428.27 5.32092 1442.48 15.5976L1459.78 28.098C1471.24 36.3868 1485.55 39.7468 1499.5 37.4297L1528.65 32.5904C1533.6 31.7687 1538.45 30.4264 1543.12 28.586C1568.84 18.4425 1598.12 24.1008 1618.21 43.1011L1645.11 68.5397C1649.95 73.1221 1655.21 77.2517 1660.81 80.8767C1709.54 112.433 1774.44 100.404 1808.63 53.4787L1824.75 31.3548C1833.73 19.031 1836.95 3.43125 1833.59 -11.4413L1827.92 -36.5133C1824.16 -53.136 1807.02 -63.0131 1790.75 -57.9251C1784.74 -56.0453 1779.5 -52.2718 1775.82 -47.1684L1774.14 -44.8515C1764.49 -31.4952 1747.3 -25.9365 1731.65 -31.1163L1622.17 -67.37L1603.95 -74.0199C1584.62 -81.0741 1562.95 -74.7305 1550.47 -58.3668Z" fill="white"/>
<path d="M1198.98 407.063L1194.99 412.292C1185.37 424.908 1168.88 430.137 1153.75 425.365L1153.05 425.144C1149.85 424.135 1146.52 423.622 1143.17 423.622H1132.59C1114.03 423.622 1101.51 442.588 1108.8 459.653C1118.9 486.841 1146.86 503.049 1175.47 498.299L1177.95 497.887C1182.37 497.154 1186.7 495.956 1190.86 494.313L1191.62 494.016C1217.35 483.872 1246.62 489.53 1266.71 508.531L1293.61 533.969C1298.46 538.552 1303.71 542.681 1309.31 546.306C1358.04 577.863 1422.94 565.834 1457.13 518.908L1464.35 509.001C1478.98 488.914 1484.24 463.487 1478.76 439.246C1472.88 413.264 1455.33 391.457 1431.2 380.173L1429.86 379.549C1408.5 366.134 1382.32 362.782 1358.27 370.382L1286.94 392.919C1276.39 396.252 1265.03 396.003 1254.64 392.209L1252.45 391.41C1233.12 384.356 1211.45 390.699 1198.98 407.063Z" fill="white"/>
<path d="M963.719 118.045L967.705 123.273C977.321 135.89 993.818 141.119 1008.95 136.347L1009.65 136.126C1012.84 135.117 1016.18 134.604 1019.53 134.604H1030.11C1048.66 134.604 1061.18 153.57 1053.89 170.635C1043.79 197.823 1015.83 214.031 987.224 209.281L984.741 208.869C980.324 208.136 975.996 206.938 971.831 205.295L971.076 204.998C945.35 194.854 916.078 200.512 895.985 219.513L869.084 244.951C864.238 249.534 858.984 253.663 853.385 257.288C804.651 288.844 739.752 276.816 705.564 229.89L698.345 219.983C683.711 199.896 678.459 174.469 683.938 150.228C689.811 124.245 707.367 102.439 731.497 91.1546L732.831 90.5307C754.195 77.1155 780.374 73.7638 804.429 81.3641L875.756 103.9C886.306 107.234 897.663 106.985 908.057 103.191L910.248 102.392C929.576 95.3375 951.246 101.681 963.719 118.045Z" fill="white"/>
</g>
<g opacity="0.4" filter="url(#filter4_f_389_413)">
<path d="M1250.96 -269.836C849.859 159.506 1096.52 862.641 1677.93 947.321L1864.35 974.471L212.483 793.739L1250.96 -269.836Z" fill="#1E819A"/>
</g>
<g opacity="0.3" filter="url(#filter5_f_389_413)">
<path d="M1385.91 1054.2C1812.78 650.469 1610.05 -66.5649 1034.98 -187.014L850.593 -225.633L2488.13 56.837L1385.91 1054.2Z" fill="white"/>
</g>
</g>
</g>
</g>
</g>
<defs>
<filter id="filter0_d_389_413" x="0" y="0" width="1728" height="608" filterUnits="userSpaceOnUse" color-interpolation-filters="sRGB">
<feFlood flood-opacity="0" result="BackgroundImageFix"/>
<feColorMatrix in="SourceAlpha" type="matrix" values="0 0 0 0 0 0 0 0 0 0 0 0 0 0 0 0 0 0 127 0" result="hardAlpha"/>
<feOffset dy="4"/>
<feGaussianBlur stdDeviation="2"/>
<feComposite in2="hardAlpha" operator="out"/>
<feColorMatrix type="matrix" values="0 0 0 0 0 0 0 0 0 0 0 0 0 0 0 0 0 0 0.25 0"/>
<feBlend mode="normal" in2="BackgroundImageFix" result="effect1_dropShadow_389_413"/>
<feBlend mode="normal" in="SourceGraphic" in2="effect1_dropShadow_389_413" result="shape"/>
</filter>
<filter id="filter1_d_389_413" x="694.71" y="-220.29" width="1058.58" height="1032.27" filterUnits="userSpaceOnUse" color-interpolation-filters="sRGB">
<feFlood flood-opacity="0" result="BackgroundImageFix"/>
<feColorMatrix in="SourceAlpha" type="matrix" values="0 0 0 0 0 0 0 0 0 0 0 0 0 0 0 0 0 0 127 0" result="hardAlpha"/>
<feOffset/>
<feGaussianBlur stdDeviation="64.6448"/>
<feComposite in2="hardAlpha" operator="out"/>
<feColorMatrix type="matrix" values="0 0 0 0 0 0 0 0 0 0.458156 0 0 0 0 0.566667 0 0 0 0.6 0"/>
<feBlend mode="normal" in2="BackgroundImageFix" result="effect1_dropShadow_389_413"/>
<feBlend mode="normal" in="SourceGraphic" in2="effect1_dropShadow_389_413" result="shape"/>
</filter>
<filter id="filter2_d_389_413" x="633.678" y="-21.8581" width="1063.56" height="683.645" filterUnits="userSpaceOnUse" color-interpolation-filters="sRGB">
<feFlood flood-opacity="0" result="BackgroundImageFix"/>
<feColorMatrix in="SourceAlpha" type="matrix" values="0 0 0 0 0 0 0 0 0 0 0 0 0 0 0 0 0 0 127 0" result="hardAlpha"/>
<feOffset dy="6.46448"/>
<feGaussianBlur stdDeviation="16.1612"/>
<feComposite in2="hardAlpha" operator="out"/>
<feColorMatrix type="matrix" values="0 0 0 0 0.160417 0 0 0 0 0.619952 0 0 0 0 0.7 0 0 0 1 0"/>
<feBlend mode="normal" in2="BackgroundImageFix" result="effect1_dropShadow_389_413"/>
<feBlend mode="normal" in="SourceGraphic" in2="effect1_dropShadow_389_413" result="shape"/>
</filter>
<filter id="filter3_f_389_413" x="-1647.01" y="-109.193" width="4004.67" height="1041.17" filterUnits="userSpaceOnUse" color-interpolation-filters="sRGB">
<feFlood flood-opacity="0" result="BackgroundImageFix"/>
<feBlend mode="normal" in="SourceGraphic" in2="BackgroundImageFix" result="shape"/>
<feGaussianBlur stdDeviation="16.1612" result="effect1_foregroundBlur_389_413"/>
</filter>
<filter id="filter4_f_389_413" x="147.838" y="-334.481" width="1781.15" height="1373.6" filterUnits="userSpaceOnUse" color-interpolation-filters="sRGB">
<feFlood flood-opacity="0" result="BackgroundImageFix"/>
<feBlend mode="normal" in="SourceGraphic" in2="BackgroundImageFix" result="shape"/>
<feGaussianBlur stdDeviation="32.3224" result="effect1_foregroundBlur_389_413"/>
</filter>
<filter id="filter5_f_389_413" x="721.304" y="-354.922" width="1896.12" height="1538.41" filterUnits="userSpaceOnUse" color-interpolation-filters="sRGB">
<feFlood flood-opacity="0" result="BackgroundImageFix"/>
<feBlend mode="normal" in="SourceGraphic" in2="BackgroundImageFix" result="shape"/>
<feGaussianBlur stdDeviation="64.6448" result="effect1_foregroundBlur_389_413"/>
</filter>
<linearGradient id="paint0_linear_389_413" x1="1553.5" y1="600" x2="864" y2="600" gradientUnits="userSpaceOnUse">
<stop stop-color="#265BFF"/>
<stop offset="1" stop-color="#5063FA"/>
</linearGradient>
<linearGradient id="paint1_linear_389_413" x1="1578.15" y1="171.797" x2="-191.82" y2="380.86" gradientUnits="userSpaceOnUse">
<stop stop-color="#265BFF"/>
<stop offset="1" stop-color="#7C8BFF"/>
</linearGradient>
<linearGradient id="paint2_linear_389_413" x1="1029.25" y1="311.044" x2="1709.59" y2="251.276" gradientUnits="userSpaceOnUse">
<stop stop-color="#228EA9"/>
<stop offset="1" stop-color="#02DEFE"/>
</linearGradient>
<clipPath id="clip0_389_413">
<rect x="4" width="1720" height="600" rx="4" fill="white"/>
</clipPath>
<clipPath id="clip1_389_413">
<rect x="824" y="-91" width="800" height="773.691" rx="386.845" fill="white"/>
</clipPath>
</defs>
</svg>
